<?xml version="1.0" encoding="utf-8"?>
<!-- Generator: Adobe Illustrator 18.0.0, SVG Export Plug-In . SVG Version: 6.00 Build 0)  -->
<!DOCTYPE svg PUBLIC "-//W3C//DTD SVG 1.1//EN" "http://www.w3.org/Graphics/SVG/1.1/DTD/svg11.dtd">
<svg version="1.1" id="Layer_1" xmlns="http://www.w3.org/2000/svg" xmlns:xlink="http://www.w3.org/1999/xlink" x="0px" y="0px"
	 viewBox="0 0 32 32" enable-background="new 0 0 32 32" xml:space="preserve">
<path fill="#FFFFFF" d="M0,17.4c0,1.5,0.1,2.8,0.4,3.9s0.6,2.2,1.1,3.1s1.1,1.6,1.8,2.3c0.7,0.7,1.5,1.2,2.4,1.6s1.9,0.8,3,1
	s2.2,0.4,3.4,0.5S14.6,30,16,30c1.4,0,2.7-0.1,3.8-0.2s2.3-0.3,3.4-0.5s2.1-0.6,3-1s1.7-1,2.4-1.6s1.4-1.4,1.8-2.3s0.9-1.9,1.1-3.1
	c0.3-1.2,0.4-2.5,0.4-3.9c0-2.6-0.9-4.8-2.6-6.7c0.1-0.2,0.2-0.5,0.3-0.9s0.2-0.8,0.2-1.4s0-1.3-0.1-2s-0.3-1.6-0.7-2.4l-0.2,0
	c-0.2,0-0.4,0-0.8,0c-0.4,0-0.8,0.1-1.3,0.3c-0.5,0.1-1.2,0.4-2,0.8S23.2,6,22.3,6.6C20.7,6.2,18.7,6,16,6c-2.6,0-4.7,0.2-6.3,0.6
	C8.8,6,8,5.5,7.2,5.1S5.7,4.5,5.3,4.3C4.8,4.2,4.3,4.1,3.9,4S3.2,4,3.1,4C3,4,2.9,4,2.9,4.1C2.5,4.9,2.3,5.6,2.2,6.4s-0.1,1.5-0.1,2
	s0.1,1,0.2,1.4s0.2,0.6,0.3,0.9C0.9,12.6,0,14.8,0,17.4L0,17.4z M3.9,21.3c0-1.5,0.7-2.9,2-4.1c0.4-0.4,0.9-0.7,1.4-0.9
	S8.6,16,9.2,16c0.7,0,1.3,0,2,0s1.4,0.1,2.3,0.1s1.7,0.1,2.4,0.1s1.5,0,2.4-0.1s1.7-0.1,2.3-0.1s1.3,0,2,0c0.7,0,1.3,0.1,1.8,0.3
	s1,0.5,1.4,0.9c1.4,1.2,2,2.6,2,4.1c0,0.9-0.1,1.7-0.3,2.4S27,25,26.7,25.4s-0.8,0.9-1.5,1.2s-1.2,0.6-1.8,0.8s-1.3,0.3-2.3,0.4
	c-0.9,0.1-1.7,0.2-2.5,0.2s-1.6,0-2.8,0s-2,0-2.8,0s-1.5-0.1-2.5-0.2S9,27.6,8.4,27.4c-0.6-0.2-1.2-0.4-1.8-0.8s-1.1-0.7-1.5-1.2
	s-0.6-1.1-0.9-1.7S3.9,22.2,3.9,21.3L3.9,21.3z M20,21c0-1.7,0.9-3,2-3s2,1.3,2,3s-0.9,3-2,3S20,22.7,20,21z M8,21c0-1.7,0.9-3,2-3
	s2,1.3,2,3s-0.9,3-2,3S8,22.7,8,21z"/>
</svg>
