<?xml version="1.0" encoding="utf-8"?>
<!-- Generator: Adobe Illustrator 18.0.0, SVG Export Plug-In . SVG Version: 6.00 Build 0)  -->
<!DOCTYPE svg PUBLIC "-//W3C//DTD SVG 1.1//EN" "http://www.w3.org/Graphics/SVG/1.1/DTD/svg11.dtd">
<svg version="1.1" id="Layer_1" xmlns="http://www.w3.org/2000/svg" xmlns:xlink="http://www.w3.org/1999/xlink" x="0px" y="0px"
	 viewBox="0 0 32 32" enable-background="new 0 0 32 32" xml:space="preserve">
<path fill="#FFFFFF" d="M7,14c3.9,0,7,3.1,7,7s-3.1,7-7,7s-7-3.1-7-7l0-1C0,12.3,6.3,6,14,6v4c-2.7,0-5.2,1-7.1,2.9
	c-0.4,0.4-0.7,0.8-1,1.2C6.3,14,6.7,14,7,14z M25,14c3.9,0,7,3.1,7,7s-3.1,7-7,7s-7-3.1-7-7l0-1c0-7.7,6.3-14,14-14v4
	c-2.7,0-5.2,1-7.1,2.9c-0.4,0.4-0.7,0.8-1,1.2C24.3,14,24.7,14,25,14z"/>
</svg>
