<?xml version="1.0" encoding="utf-8"?>
<!-- Generator: Adobe Illustrator 19.2.1, SVG Export Plug-In . SVG Version: 6.00 Build 0)  -->
<svg version="1.1" id="Layer_1" xmlns="http://www.w3.org/2000/svg" xmlns:xlink="http://www.w3.org/1999/xlink" x="0px" y="0px"
	 viewBox="0 0 155 58.5" style="enable-background:new 0 0 155 58.5;" xml:space="preserve">
<style type="text/css">
	.st0{fill:#E16941;}
</style>
<g>
	<g>
		<path d="M52.4,15.6V12c0-2.5,2-3.9,4.1-3.9c2.3,0,4.2,1.4,4.2,3.8v3.4c0,2.5-1.9,3.9-4.1,3.9C54.3,19.2,52.4,18,52.4,15.6z
			 M59.2,15.4v-3.6c0-1.5-1.2-2.4-2.7-2.4c-1.4,0-2.6,0.9-2.6,2.5v3.5c0,1.5,1.2,2.4,2.7,2.4C57.9,17.9,59.2,17.1,59.2,15.4z"/>
		<path d="M63.4,8.4h4c2.1,0,3.5,1.2,3.5,3.2c0,1.7-1.2,3.3-3.6,3.3h-2.5V19h-1.5L63.4,8.4L63.4,8.4z M67.1,13.7
			c1.5,0,2.4-0.7,2.4-2s-0.9-2-2.2-2H65v4H67.1z"/>
		<path d="M73.4,8.4h7v1.3h-5.6v3.2h4.8v1.3h-4.8v3.5h5.6V19h-7.1L73.4,8.4L73.4,8.4z"/>
		<path d="M83.1,8.4h1.4l5.2,8.1l0,0V8.4h1.4V19h-1.4l-5.2-8.2l0,0V19h-1.4V8.4z"/>
	</g>
	<g>
		<path d="M44.4,26.5h1.4l3.9,10.7h-1.5l-1-2.8h-4.3l-1,2.8h-1.5L44.4,26.5z M46.7,33.1L45,28.3l0,0l-1.7,4.8H46.7z"/>
		<path d="M51.9,26.5h3.9c2,0,3.5,1.2,3.5,3.2c0,1.4-0.8,2.7-2.4,3.1l2.9,4.3h-1.6L55.4,33h-2v4.2h-1.5V26.5z M55.5,31.8
			c1.5,0,2.3-0.7,2.3-2c0-1.4-1-2-2.4-2h-2.2v4H55.5z"/>
		<path d="M61.8,33.8v-3.6c0-2.4,1.8-3.8,4.1-3.8c2.1,0,3.9,1.2,3.9,3.3v0.5h-1.4v-0.3c0-1.4-1.2-2.2-2.5-2.2
			c-1.4,0-2.6,0.8-2.6,2.5v3.5c0,1.5,1.2,2.4,2.7,2.4c1.4,0,2.5-0.7,2.5-2.2v-0.2h1.4v0.4c0,2.1-1.7,3.3-3.8,3.3
			C63.7,37.4,61.8,36.1,61.8,33.8z"/>
		<path d="M72.5,26.5H74V31h5v-4.5h1.5v10.7H79v-4.8h-5v4.8h-1.5V26.5z"/>
		<path d="M83.5,26.5H85v10.7h-1.5V26.5z"/>
		<path d="M90.6,27.8h-3.3v-1.3h8.1v1.3H92v9.4h-1.5L90.6,27.8L90.6,27.8z"/>
		<path d="M97.6,26.5h7v1.3H99V31h4.8v1.3H99v3.5h5.6v1.3h-7.1L97.6,26.5L97.6,26.5z"/>
		<path d="M106.7,33.8v-3.6c0-2.4,1.8-3.8,4.1-3.8c2.1,0,3.9,1.2,3.9,3.3v0.5h-1.4v-0.3c0-1.4-1.2-2.2-2.5-2.2
			c-1.4,0-2.6,0.8-2.6,2.5v3.5c0,1.5,1.2,2.4,2.7,2.4c1.4,0,2.5-0.7,2.5-2.2v-0.2h1.4v0.4c0,2.1-1.7,3.3-3.8,3.3
			C108.6,37.4,106.7,36.1,106.7,33.8z"/>
		<path d="M119.7,27.8h-3.3v-1.3h8.1v1.3h-3.3v9.4h-1.5C119.7,37.2,119.7,27.8,119.7,27.8z"/>
		<path d="M126.7,33.7v-7.1h1.5v6.9c0,1.7,1,2.6,2.6,2.6s2.6-0.9,2.5-2.6v-6.9h1.5v7c0,2.4-1.6,3.8-4,3.8
			C128.5,37.4,126.7,36.2,126.7,33.7z"/>
		<path d="M137.7,26.5h3.9c2,0,3.5,1.2,3.5,3.2c0,1.4-0.8,2.7-2.4,3.1l2.9,4.3H144l-2.8-4.2h-2v4.2h-1.5V26.5z M141.4,31.8
			c1.5,0,2.3-0.7,2.3-2c0-1.4-1-2-2.4-2h-2.2v4H141.4z"/>
		<path d="M147.9,26.5h7v1.3h-5.6V31h4.8v1.3h-4.8v3.5h5.6v1.3h-7.1V26.5H147.9z"/>
	</g>
	<g>
		<path d="M31.9,52v-3.6c0-2.4,1.8-3.8,4.1-3.8c2.1,0,3.9,1.2,3.9,3.3v0.5h-1.4v-0.3c0-1.4-1.2-2.2-2.5-2.2c-1.4,0-2.6,0.8-2.6,2.5
			v3.5c0,1.5,1.2,2.4,2.7,2.4c1.4,0,2.5-0.7,2.5-2.2v-0.2H40v0.4c0,2.1-1.7,3.3-3.8,3.3C33.8,55.6,31.9,54.3,31.9,52z"/>
		<path d="M42.4,52v-3.6c0-2.5,2-3.9,4.1-3.9c2.3,0,4.2,1.4,4.2,3.8v3.4c0,2.5-1.9,3.9-4.1,3.9C44.3,55.6,42.4,54.3,42.4,52z
			 M49.2,51.8v-3.6c0-1.5-1.2-2.4-2.7-2.4c-1.4,0-2.6,0.9-2.6,2.5v3.5c0,1.5,1.2,2.4,2.7,2.4C47.9,54.3,49.2,53.5,49.2,51.8z"/>
		<path d="M53.5,44.7H55v9.4h5.4v1.3h-6.9V44.7z"/>
		<path d="M62.8,44.7h1.5v9.4h5.4v1.3h-6.9C62.8,55.4,62.8,44.7,62.8,44.7z"/>
		<path d="M75.6,44.7H77l3.9,10.7h-1.5l-1-2.8h-4.3l-1,2.8h-1.5L75.6,44.7z M78,51.3l-1.7-4.8l0,0l-1.7,4.8H78z"/>
		<path d="M83.3,44.7h4.2c1.9,0,3.1,0.9,3.1,2.7c0,1.1-0.6,2-1.7,2.4l0,0c1.4,0.3,2.1,1.3,2.1,2.6c0,2-1.6,3-3.3,3h-4.4
			C83.3,55.4,83.3,44.7,83.3,44.7z M87.3,49.3c1.1,0,2-0.6,2-1.7c0-1.2-0.8-1.6-2-1.6h-2.5v3.3H87.3z M87.4,54.1
			c1.2,0,2.1-0.6,2.1-1.8s-0.9-1.8-2.1-1.8h-2.7v3.6H87.4z"/>
		<path d="M93.5,52v-3.6c0-2.5,2-3.9,4.1-3.9c2.3,0,4.2,1.4,4.2,3.8v3.4c0,2.5-1.9,3.9-4.1,3.9C95.4,55.6,93.5,54.3,93.5,52z
			 M100.4,51.8v-3.6c0-1.5-1.2-2.4-2.7-2.4c-1.4,0-2.6,0.9-2.6,2.5v3.5c0,1.5,1.2,2.4,2.7,2.4C99.1,54.3,100.4,53.5,100.4,51.8z"/>
		<path d="M104.4,44.7h3.9c2,0,3.5,1.2,3.5,3.2c0,1.4-0.8,2.7-2.4,3.1l2.9,4.3h-1.6l-2.8-4.2h-2v4.2h-1.5V44.7z M108.1,50
			c1.5,0,2.3-0.7,2.3-2c0-1.4-1-2-2.4-2h-2.2v4H108.1z"/>
		<path d="M117.7,44.7h1.4l3.9,10.7h-1.5l-1-2.8h-4.3l-1,2.8h-1.5L117.7,44.7z M120.1,51.3l-1.7-4.8l0,0l-1.7,4.8H120.1z"/>
		<path d="M126.6,46h-3.3v-1.3h8.1V46H128v9.4h-1.5L126.6,46L126.6,46z"/>
		<path d="M133.8,44.7h1.5v10.7h-1.5V44.7z"/>
		<path d="M137.4,44.7h1.5l2.8,8.6l0,0l2.8-8.6h1.5l-3.6,10.7H141L137.4,44.7z"/>
		<path d="M147.9,44.7h7V46h-5.6v3.2h4.8v1.3h-4.8V54h5.6v1.3h-7.1V44.7H147.9z"/>
	</g>
	<path class="st0" d="M11.5,46.9l4.2-7.4c-3.9-2.8-6.7-7.2-7.1-12.4C7.8,17.8,14.7,9.7,24,9c2.9-0.2,5.7,0.3,8.2,1.4L36.4,3
		c-4-2-8.4-2.9-13.1-2.6C9.4,1.6-1,13.8,0.1,27.8C0.7,35.9,5.2,42.8,11.5,46.9z"/>
	<rect x="-1" y="28.1" transform="matrix(0.4896 -0.872 0.872 0.4896 -9.2277 42.6857)" width="65.7" height="2.3"/>
</g>
</svg>
