<?xml version="1.0" encoding="utf-8"?>
<!-- Generator: Adobe Illustrator 19.2.1, SVG Export Plug-In . SVG Version: 6.00 Build 0)  -->
<svg version="1.1" id="Layer_1" xmlns="http://www.w3.org/2000/svg" xmlns:xlink="http://www.w3.org/1999/xlink" x="0px" y="0px"
	 viewBox="0 0 210 210" style="enable-background:new 0 0 210 210;" xml:space="preserve">
<style type="text/css">
	.st0{fill:#E16941;}
	.st1{fill:#E6997A;}
</style>
<circle class="st0" cx="105" cy="105" r="105"/>
<g>
	<g>
		<path class="st1" d="M105.6,158.7c-29.6,0-53.6-24.1-53.6-53.6S76,51.4,105.6,51.4c29.6,0,53.6,24.1,53.6,53.6
			S135.2,158.7,105.6,158.7z M105.6,69.7c-19.5,0-35.3,15.8-35.3,35.3c0,19.5,15.8,35.3,35.3,35.3s35.3-15.8,35.3-35.3
			C140.9,85.6,125.1,69.7,105.6,69.7z"/>
	</g>
	<rect x="116.7" y="43.3" transform="matrix(0.872 0.4896 -0.4896 0.872 70.2678 -43.9614)" width="4.9" height="138.2"/>
</g>
<path d="M76.3,149.6l8.9-15.7c-8.3-5.9-14.1-15.2-15-26.1c-1.6-19.5,13-36.6,32.5-38.2c6.1-0.5,12,0.6,17.3,2.9l8.9-15.7
	c-8.3-4-17.8-6-27.6-5.2C71.8,54,49.8,79.8,52.2,109.2C53.5,126.3,62.9,140.9,76.3,149.6z"/>
</svg>
