<?xml version="1.0" encoding="utf-8"?>
<!-- Generator: Adobe Illustrator 16.0.0, SVG Export Plug-In . SVG Version: 6.00 Build 0)  -->
<!DOCTYPE svg PUBLIC "-//W3C//DTD SVG 1.1//EN" "http://www.w3.org/Graphics/SVG/1.1/DTD/svg11.dtd">
<svg version="1.1" id="Ebene_1" xmlns="http://www.w3.org/2000/svg" xmlns:xlink="http://www.w3.org/1999/xlink" x="0px" y="0px"
	 width="297.641px" height="99.21px" viewBox="0 0 297.641 99.21" enable-background="new 0 0 297.641 99.21" xml:space="preserve">
<path d="M174.132,30.788c-0.786-0.507-1.369-0.684-2.054-0.684c-1.217,0-1.875,0.761-1.875,2.41v0.834h4.967v1.928h-4.967v10.849
	h-2.131V35.276h-3.601v-1.928h3.601v-0.785c0-3.093,1.495-4.386,3.929-4.386c1.167,0,1.952,0.305,2.662,0.735L174.132,30.788z"/>
<path d="M182.272,44.401c2.61,0,4.105-2.206,4.105-4.665c0-2.458-1.495-4.664-4.105-4.664s-4.106,2.206-4.106,4.664
	C178.166,42.195,179.662,44.401,182.272,44.401 M182.272,33.145c3.901,0,6.286,3.068,6.286,6.592s-2.385,6.591-6.286,6.591
	c-3.903,0-6.287-3.067-6.287-6.591C175.985,36.212,178.369,33.145,182.272,33.145"/>
<path d="M200.062,37.404c-0.178-1.47-0.938-2.331-2.458-2.331c-2.23,0-4.334,2.103-4.334,6.439v4.612h-2.13V33.348h2.13v2.358
	c0.988-1.547,2.584-2.562,4.714-2.562c2.536,0,4.056,1.522,4.209,4.26H200.062z"/>
<polygon fill="#D57A75" points="66.909,27.572 66.909,28.268 66.909,72.337 70.595,72.337 71.625,72.337 72.504,72.337 
	72.504,27.572 "/>
<g>
	<path fill="#CE5A4E" d="M89.102,76.535c0.384,0,0.889-0.348,0.889-0.729v-52.43c0-0.383-0.505-0.698-0.889-0.698H71.625
		c-0.384,0-0.519,0.157-0.519,0.349v1.048v3.496c0,0.384,0.135,0.702,0.519,0.702h11.884c0.385,0,0.888,0.311,0.888,0.696v41.247
		c0,0.383-0.503,0.725-0.888,0.725H71.625c-0.384,0-0.519,0.131-0.519,0.324v1.047v3.496c0,0.383,0.135,0.73,0.519,0.73h17.478
		V76.535z"/>
</g>
<polygon fill="#8BBD97" points="96.986,27.572 96.986,28.268 96.986,72.337 101.684,72.337 102.582,72.337 102.582,27.572 "/>
<g>
	<path fill="#4EA15A" d="M101.882,76.503v-5.592c7.694,0,13.063-9.565,13.063-21.322c0-11.757-5.369-21.322-13.063-21.322v-5.593
		c10.492,0,18.656,12.074,18.656,26.915C120.538,64.43,112.374,76.503,101.882,76.503"/>
	<path fill="#33A1DF" d="M43.827,59.307v7.713V69.5c0,4.185,2.678,7.035,6.909,7.035h1.189h3.426h4.04
		c0.192,0,0.523-0.348,0.523-0.729V71.61c0-0.383-0.489-0.672-0.873-0.672h-4.017h-2.05h-1.271c-1.81,0-2.282-0.771-2.282-2.838
		v-1.229v-6.729v-4.104c0-4.218-1.715-5.771-3.803-6.536c2.088-0.763,3.803-2.315,3.803-6.53v-2.914v-7.394V30.91
		c0-2.033,0.405-2.64,2.282-2.64h1.58h2.004h4.103c0.192,0,0.523-0.318,0.523-0.702v-4.195c0-0.383-0.489-0.698-0.873-0.698h-3.36
		H52.51h-1.773c-4.231,0-6.909,2.74-6.909,6.834v2.196v9.146c0,0-0.139,2.1-0.24,2.814c-0.265,1.891-2.582,3.511-4.017,3.491h-2.199
		c-0.385,0-0.539,0.3-0.539,0.685v4.196c0,0.383,0.154,0.715,0.539,0.715h2.008c1.832-0.025,4.146,1.518,4.321,3.819
		C43.753,57.24,43.827,59.307,43.827,59.307"/>
	<path fill="#BD3C38" d="M71.625,22.676h-1.981H67.43c-0.385,0-0.521,0.315-0.521,0.699v1.291v2.903v0.703h0.521h4.194h0.88v-0.703
		v-4.194v-0.699H71.625z"/>
	<path fill="#BD3C38" d="M66.909,71.611v1.98v2.213c0,0.385,0.137,0.73,0.521,0.73h1.292h2.902h0.879v-0.73v-4.193v-0.672h-0.879
		H67.43h-0.521V71.611z"/>
	<path fill="#27954E" d="M101.684,22.676h-1.981H97.49c-0.384,0-0.504,0.315-0.504,0.699v1.291v2.903v0.703h0.504h4.194h0.897
		v-0.703v-4.194v-0.699H101.684z"/>
	<path fill="#27954E" d="M96.986,71.611v1.98v2.213c0,0.385,0.12,0.73,0.504,0.73h1.291h2.903h0.897v-0.73v-4.193v-0.672h-0.897
		H97.49h-0.504V71.611z"/>
	<path fill="#7BBBB7" d="M131.959,59.307v7.713V69.5c0,4.185,2.627,7.035,6.859,7.035h1.189h3.426h4.04
		c0.192,0,0.572-0.348,0.572-0.729V71.61c0-0.383-0.538-0.672-0.922-0.672h-4.018h-2.05h-1.269c-1.81,0-2.232-0.771-2.232-2.838
		v-1.229v-6.729v-4.104c0-1.357-0.398-2.586-0.708-3.287h-9.388c2.579,0.701,3.682,1.623,4.207,3.869
		C131.929,57.74,131.959,59.307,131.959,59.307"/>
	<path fill="#7BBBB7" d="M131.562,43.665c-0.542,1.832-1.751,2.793-3.91,3.493h8.807c0.547-1.399,1.097-2.333,1.097-4.184v-2.913
		v-7.394v-1.756c0-2.032,0.354-2.639,2.232-2.639h1.579h2.003h4.104c0.192,0,0.572-0.318,0.572-0.702v-4.195
		c0-0.384-0.538-0.699-0.922-0.699h-3.359h-3.172h-1.774c-4.232,0-6.859,2.741-6.859,6.835v2.196v9.146
		C131.959,40.853,131.833,42.751,131.562,43.665"/>
	<path fill="#9AC9C6" d="M132.924,49.999c1.416,0.52,2.97,1.355,3.924,2.752h10.275c0.385,0,0.923-0.332,0.923-0.715v-4.194
		c0-0.386-0.538-0.687-0.923-0.687h-10.664C135.759,48.556,134.096,49.571,132.924,49.999"/>
	<path fill="#42A5A5" d="M125.453,47.158c-0.385,0-0.489,0.301-0.489,0.685v4.196c0,0.385,0.104,0.717,0.489,0.717h2.007h9.388
		c-0.631-1.4-2.196-2.358-3.314-2.793c1.172-0.43,2.226-1.404,2.926-2.803h-8.808L125.453,47.158L125.453,47.158z"/>
</g>
<g>
	<rect x="161.604" y="49.054" fill="#CE5A4E" width="102.047" height="31.181"/>
	<g>
		<g>
			<defs>
				<rect id="SVGID_1_" x="161.604" y="49.054" width="102.047" height="31.181"/>
			</defs>
			<clipPath id="SVGID_2_">
				<use xlink:href="#SVGID_1_"  overflow="visible"/>
			</clipPath>
			<path clip-path="url(#SVGID_2_)" fill="#FFFFFF" d="M244.802,64.753c-0.104-1.975-1.145-3.071-2.879-3.071
				c-1.455,0-2.547,0.731-3.225,1.849V61.83h-1.455v9.213h1.455v-3.326c0-3.127,1.439-4.643,2.965-4.643
				c1.041,0,1.562,0.62,1.683,1.68H244.802L244.802,64.753z M231.072,63.072c1.422,0,2.34,0.842,2.6,2.303h-5.182
				C228.783,63.986,229.668,63.072,231.072,63.072 M235.215,66.125c0-2.414-1.438-4.442-4.143-4.442
				c-2.617,0-4.178,2.157-4.178,4.754c0,2.687,1.629,4.753,4.178,4.753c1.629,0,3.016-0.641,3.971-2.578l-1.162-0.64
				c-0.59,1.151-1.491,1.827-2.809,1.827c-1.543,0-2.603-1.207-2.688-3.034h6.83L235.215,66.125L235.215,66.125z M217.533,63.218
				h2.322v4.771c0,2.137,1.059,3.198,2.965,3.198c1.092,0,1.889-0.349,2.688-1.188l-0.539-1.297
				c-0.762,0.84-1.385,1.096-2.147,1.096c-0.971,0-1.508-0.586-1.508-1.864v-4.716h4.264V61.83h-4.264V58.1l-1.457,0.97v2.76h-2.322
				L217.533,63.218L217.533,63.218z M212.887,61.682c-1.611,0-2.98,1.024-2.98,2.67c0,1.81,1.352,2.34,2.824,2.669
				c1.387,0.311,2.254,0.566,2.254,1.354c0,0.967-0.867,1.424-1.855,1.424c-1.194,0-2.026-0.692-2.409-1.826l-1.386,0.549
				c0.537,1.755,2.045,2.669,3.795,2.669c1.804,0,3.363-1.062,3.363-2.962c0-1.663-1.508-2.157-3.137-2.505
				c-1.301-0.272-2.029-0.64-2.029-1.427c0-0.895,0.764-1.223,1.508-1.223c0.938,0,1.562,0.438,2.099,1.461l1.145-0.859
				C215.418,62.414,214.465,61.682,212.887,61.682 M207.756,64.625c0-1.771-0.85-2.942-2.67-2.942c-1.248,0-2.34,0.786-2.965,1.849
				V61.83h-1.455v9.213h1.455v-3.711c0-2.687,1.197-4.258,2.566-4.258c1.041,0,1.61,0.602,1.61,1.881v6.088h1.457L207.756,64.625
				L207.756,64.625z M195.17,59.142c0,0.586,0.435,1.023,0.972,1.023c0.571,0,0.987-0.438,0.987-1.023s-0.416-1.042-0.987-1.042
				C195.604,58.1,195.17,58.557,195.17,59.142 M191.98,59.142c0,0.586,0.434,1.023,0.971,1.023c0.572,0,0.988-0.438,0.988-1.023
				s-0.416-1.042-0.988-1.042C192.414,58.1,191.98,58.557,191.98,59.142 M190.957,68.246c0,1.772,0.851,2.942,2.67,2.942
				c1.248,0,2.34-0.786,2.965-1.849v1.701h1.455v-9.213h-1.455v3.711c0,2.688-1.194,4.258-2.565,4.258
				c-1.039,0-1.611-0.603-1.611-1.881v-6.088h-1.457L190.957,68.246L190.957,68.246z M180.451,58.246v12.795h1.527v-9.377
				l2.112,5.703h1.146l2.115-5.703v9.377h1.524V58.246h-1.629l-2.584,7.092l-2.582-7.092H180.451z"/>
		</g>
	</g>
</g>
</svg>
